<svg width="82" height="96" viewBox="0 0 82 96" fill="none" xmlns="http://www.w3.org/2000/svg">
<path d="M82 22.6447V36.8496C82 37.7455 81.4348 38.5558 80.5619 38.9112L63.3452 45.9214C61.4277 46.7022 61.4277 49.264 63.3452 50.0447L80.5619 57.055C81.4348 57.4104 82 58.2206 82 59.1166V73.3214C82 74.991 80.1352 76.0769 78.5502 75.3302L42.3177 58.2613C41.5101 57.8808 41 57.1032 41 56.2525V39.7137C41 38.863 41.5101 38.0853 42.3177 37.7049L78.5502 20.6359C80.1352 19.8893 82 20.9752 82 22.6447Z" fill="url(#paint0_linear_605_1912)"/>
<path d="M0 20.4362C0 19.5855 0.510122 18.8078 1.31769 18.4274L39.9305 0.237108C40.6016 -0.0790358 41.3915 -0.0790359 42.0625 0.237107L57.2306 7.38271C58.9876 8.21039 58.9876 10.5727 57.2306 11.4003L21.8159 28.084C21.0084 28.4644 20.4983 29.2421 20.4983 30.0928V65.9072C20.4983 66.7579 21.0084 67.5356 21.8159 67.916L57.2306 84.5997C58.9876 85.4273 58.9876 87.7896 57.2306 88.6173L42.0625 95.7629C41.3915 96.079 40.6016 96.079 39.9305 95.7629L1.31769 77.5726C0.510122 77.1922 0 76.4145 0 75.5638V20.4362Z" fill="url(#paint1_linear_605_1912)"/>
<defs>
<linearGradient id="paint0_linear_605_1912" x1="41" y1="0" x2="41" y2="96" gradientUnits="userSpaceOnUse">
<stop stop-color="#170CB4"/>
<stop offset="1" stop-color="#830AAF"/>
</linearGradient>
<linearGradient id="paint1_linear_605_1912" x1="29.2742" y1="-3.42699e-06" x2="29.2742" y2="96" gradientUnits="userSpaceOnUse">
<stop stop-color="#170CB4"/>
<stop offset="1" stop-color="#830AAF"/>
</linearGradient>
</defs>
</svg>
